<svg xmlns="http://www.w3.org/2000/svg" width="655.359" height="655.359" fill-rule="evenodd" clip-rule="evenodd" image-rendering="optimizeQuality" shape-rendering="geometricPrecision" text-rendering="geometricPrecision" viewBox="0 0 6.827 6.827" id="notes"><defs><clipPath id="a"><path d="M3.413 0a3.413 3.413 0 1 1 0 6.827 3.413 3.413 0 0 1 0-6.827z"></path></clipPath></defs><path fill="#ffa000" d="M3.413 0a3.413 3.413 0 1 1 0 6.827 3.413 3.413 0 0 1 0-6.827z"></path><g fill="#c07a06" clip-path="url(#a)"><path d="m4.381 1.69 3.786 3.786.004.005.004.005.004.004.003.005.004.005.003.006.003.005.004.005.003.006.002.005.003.006.003.005.002.006.003.006.002.006.002.005.002.006.002.006.001.007.002.006.001.006.001.006.002.006v.007l.001.006.001.007V5.643L4.443 1.857V1.844l-.001-.007v-.006l-.001-.006-.001-.007-.001-.006-.001-.006-.001-.007-.002-.006-.001-.006-.002-.006-.002-.006-.002-.006-.003-.006-.002-.005-.002-.006-.003-.006-.003-.005-.003-.006-.003-.005-.003-.005-.003-.006-.004-.005-.003-.005-.004-.005-.003-.005-.004-.004zM4.443 1.857l3.786 3.786v.176L4.443 2.033z"></path><path d="m4.443 2.033 3.786 3.786-.951 1.648-3.786-3.786z"></path><path d="m3.492 3.681 3.786 3.786v.001L3.492 3.682z"></path><path d="m3.492 3.682 3.786 3.786-3.787-3.786zM3.491 3.682l3.787 3.786-.031.053-3.786-3.786zM3.461 3.735l3.786 3.786-.001.001v.001h-.001v.002L3.458 3.739l.001-.001v-.001h.001v-.001l.001-.001z"></path><path d="m3.458 3.739 3.787 3.786-.001.001L3.458 3.74z"></path><path d="m3.458 3.74 3.786 3.786-.001.001v.001l-.001.002-.001.001v.001l-.001.002v.001l-.001.002L3.453 3.75v-.001l.001-.001v-.002l.001-.001.001-.001v-.002l.001-.001z"></path><path d="m3.453 3.75 3.786 3.787v.001l-.001.002v.001l-.001.002v.004l-.001.001v.002L3.45 3.764V3.76l.001-.001v-.004l.001-.001v-.002z"></path><path d="M3.45 3.764 7.236 7.55v.003L3.449 3.767z"></path><path d="m3.449 3.767 3.787 3.786-.101.881-3.786-3.786z"></path><path d="m3.349 4.648 3.786 3.786v.003L3.349 4.651v-.003z"></path><path d="m3.349 4.651 3.786 3.786v.001L3.348 4.652v-.001h.001zM3.348 4.652l3.787 3.786-.001.003v.006l.001.003v.006l.001.003.001.003-3.786-3.787-.001-.002-.001-.003v-.003l-.001-.003V4.655z"></path><path d="m3.351 4.675 3.786 3.787.001.002v.003l.001.002.002.003.001.002.001.002.002.003.001.002L3.36 4.695l-.002-.003-.001-.002-.001-.002-.002-.003-.001-.002-.001-.003-.001-.002z"></path><path d="m3.36 4.695 3.786 3.786.001.001-3.786-3.786-.001-.001z"></path><path d="m3.361 4.696 3.786 3.786v.001h.001L3.361 4.697v-.001z"></path><path d="m3.361 4.697 3.787 3.786v.001h.001v.001L3.363 4.698h-.001v-.001z"></path><path d="m3.363 4.698 3.786 3.787.002.002.001.001.002.002-3.786-3.786-.002-.002-.002-.002zM4.129 3.977l3.786 3.787-.059.101L4.07 4.079zM5.075 2.339l3.786 3.786-.748 1.296-3.786-3.787zM4.064 4.084 7.85 7.87l-.575.437L3.489 4.52z"></path><path d="m4.368 5.179 3.786 3.786-.004.004-.004.004-.005.004-.005.004-.004.004-.005.004-.005.004-.005.003L8.111 9l-.005.003-.005.003-.005.003-.006.003-.006.003-.005.002-.006.003-.006.002-.005.002-.006.002-.006.002-.006.002-.006.002-.007.001-.006.002-.006.001-.006.001-.007.001L8 9.039h-.007l-.006.001H7.974L4.188 5.254h.006l.007-.001h.006l.007-.001h.006l.006-.001.007-.001.006-.002.006-.001.006-.001.006-.002.006-.002.006-.002.006-.002.006-.002.006-.002.006-.003.005-.003.006-.002.005-.003.006-.003.005-.003.005-.004.005-.003.005-.004.005-.003.005-.004.005-.004.005-.004.004-.004.005-.004z"></path><path d="M4.188 5.254 7.974 9.04H5.455L1.669 5.254z"></path><path d="M1.669 5.254 5.455 9.04H5.442l-.006-.001h-.007l-.006-.001-.007-.001-.006-.001-.006-.001-.006-.002-.006-.001-.007-.002-.006-.002-.006-.002-.005-.002-.006-.002-.006-.002-.006-.003-.005-.002-.006-.003-.005-.003-.006-.003-.005-.003L5.318 9l-.005-.004-.006-.003-.005-.004-.004-.004-.005-.004-3.786-3.786.004.004.005.004.005.003.005.004.005.003.006.004.005.003.005.003.006.003.005.002.006.003.006.003.005.002.006.002.006.002.006.002.006.002.006.002.006.001.007.001.006.002.006.001.007.001h.006l.006.001h.007l.006.001zM5.266 2.008l3.786 3.787-.129.222-3.786-3.786z"></path><path d="m5.137 2.231 3.786 3.786-.062.108-3.786-3.786zM4.327 3.634l3.786 3.787-3.786-3.786z"></path><path d="m4.327 3.635 3.786 3.786-.198.343-3.786-3.787zM4.172 4.152l3.786 3.786-3.786-3.786zM4.07 4.079l3.786 3.786-.006.005-3.786-3.786z"></path><path d="m4.443 3.682 3.786 3.786v1.316L4.443 4.998z"></path><path d="m4.443 4.998 3.786 3.786v.02l-.001.006-.001.007v.006l-.002.006-.001.007-.001.006-.002.006-.001.006-.002.006-.002.006-.002.006-.002.006-.003.006-.002.005-.003.006-.003.006-.002.005-.003.005-.004.006-.003.005-.003.005-.004.005-.003.005-.004.005-.004.005-.004.004-.004.005-.004.005-.005.004-3.786-3.786.004-.005.005-.004.004-.005.004-.005.004-.004.003-.005.004-.005.003-.005.004-.005.003-.006.003-.005.003-.005.003-.006.003-.005.003-.006.002-.006.002-.005.003-.006.002-.006.002-.006.002-.006.001-.006.002-.006.001-.007.001-.006.001-.006.001-.006.001-.007v-.006l.001-.007v-.006z"></path><path d="M4.188 1.601a.255.255 0 0 1 .255.256v.176l-.951 1.648v.001l-.031.053a.063.063 0 0 0-.011.03v-.001.003l-.101.88a.066.066 0 0 0 .002.028.062.062 0 0 0 .053.045.062.062 0 0 0 .044-.012l.005-.004.698-.53a.063.063 0 0 0 .021-.022l.002-.004v-.001l.032-.053.112-.195.125-.217v1.316a.255.255 0 0 1-.255.256H1.669a.255.255 0 0 1-.256-.256V1.857a.255.255 0 0 1 .256-.256h2.519zm.58.12.498.287-.129.223-.062.108-.748 1.295-.198.343-.059.102-.006.005-.575.436.082-.72.001-.01.058-.1.808-1.398.139-.24.062-.109.128-.222z"></path></g><path fill="none" d="M3.413 0a3.413 3.413 0 1 1 0 6.827 3.413 3.413 0 0 1 0-6.827z"></path><path fill="#fffffe" fill-rule="nonzero" d="M2.297 2.89a.063.063 0 0 0 0 .125H3.56a.062.062 0 1 0 0-.125H2.297zm0-.483a.063.063 0 0 0 0 .125H3.56a.063.063 0 0 0 0-.125H2.297zm2.483-.823.602.347a.063.063 0 0 1 .02.09l-1.23 2.131a.062.062 0 0 1-.021.022l-.703.534a.063.063 0 0 1-.099-.06l.1-.884a.062.062 0 0 1 .012-.03l1.23-2.13.054.031-.054-.03a.063.063 0 0 1 .089-.021zm.486.424-.499-.287-1.195 2.07-.083.73.581-.442 1.196-2.07z"></path><path fill="#fffffe" fill-rule="nonzero" d="M4.585 1.912a.062.062 0 0 0-.062.108l.606.35a.062.062 0 0 0 .062-.108l-.606-.35zM3.576 3.66a.062.062 0 0 0-.062.108l.607.35a.062.062 0 0 0 .062-.108l-.607-.35z"></path><path fill="#fffffe" fill-rule="nonzero" d="M1.669 1.601h2.519a.255.255 0 0 1 .255.256v.409a.062.062 0 0 1-.01.035l-.86 1.49-.084.73.581-.442.025-.042a.063.063 0 0 0-.006.028c.019-.01.041-.009.06.001l.003-.003-.054-.031-.003.005a.062.062 0 0 1 .005-.01l.227-.392a.063.063 0 0 1 .116.032v1.331a.255.255 0 0 1-.255.256H1.669a.255.255 0 0 1-.256-.256V1.857a.255.255 0 0 1 .256-.256zm2.519.125H1.669a.13.13 0 0 0-.13.131v3.141a.13.13 0 0 0 .13.13h2.519a.13.13 0 0 0 .13-.13v-1.1l-.11.192-.002.004-.054-.031-.004.003a.062.062 0 0 1 .032.052.062.062 0 0 0 .023-.02l-.028.049a.062.062 0 0 1-.02.024l-.037-.05.038.05-.703.533a.062.062 0 0 1-.104-.053l.062.007-.062-.007.1-.884c.001-.01.004-.019.009-.027l.054.03-.054-.03.86-1.49v-.393a.13.13 0 0 0-.13-.13zm.017 2.368-.002.005a.062.062 0 0 0 .005-.01v.001a.064.064 0 0 1-.002.004zm-.053-.031-.055-.032.003-.003v-.002.002l-.002.003.054.032zm-.03-.055zm.052-.004zm.032.029zm.007.02a.062.062 0 0 1-.001.027"></path></svg>